<mxfile host="app.diagrams.net" modified="2023-04-26T01:24:51.163Z" agent="Mozilla/5.0 (Windows NT 10.0; Win64; x64) AppleWebKit/537.36 (KHTML, like Gecko) Chrome/112.0.0.0 Safari/537.36" etag="2OjDpj9sEAOmEck-Zp-d" version="21.2.2" type="device">
  <diagram name="페이지-1" id="PwV60tcQClZ4pjgadKxp">
    <mxGraphModel dx="3163" dy="1947" grid="1" gridSize="10" guides="1" tooltips="1" connect="1" arrows="1" fold="1" page="1" pageScale="1" pageWidth="827" pageHeight="1169" math="0" shadow="0">
      <root>
        <mxCell id="0" />
        <mxCell id="1" parent="0" />
        <mxCell id="0TojDE-Gm-KJ80sG_e-O-1" value="" style="rounded=0;orthogonalLoop=1;jettySize=auto;html=1;exitX=0.5;exitY=1;exitDx=0;exitDy=0;fontSize=17;" parent="1" source="0TojDE-Gm-KJ80sG_e-O-4" target="0TojDE-Gm-KJ80sG_e-O-6" edge="1">
          <mxGeometry relative="1" as="geometry" />
        </mxCell>
        <mxCell id="0TojDE-Gm-KJ80sG_e-O-3" value="1" style="edgeStyle=orthogonalEdgeStyle;rounded=0;orthogonalLoop=1;jettySize=auto;html=1;entryX=0;entryY=0.5;entryDx=0;entryDy=0;fontSize=15;" parent="1" source="0TojDE-Gm-KJ80sG_e-O-4" target="0TojDE-Gm-KJ80sG_e-O-63" edge="1">
          <mxGeometry x="0.9264" y="10" relative="1" as="geometry">
            <mxPoint x="-1070" y="500" as="targetPoint" />
            <Array as="points">
              <mxPoint x="-1300" y="295" />
              <mxPoint x="-1300" y="450" />
            </Array>
            <mxPoint as="offset" />
          </mxGeometry>
        </mxCell>
        <mxCell id="0TojDE-Gm-KJ80sG_e-O-86" value="1" style="edgeStyle=orthogonalEdgeStyle;rounded=0;orthogonalLoop=1;jettySize=auto;html=1;entryX=0;entryY=0.5;entryDx=0;entryDy=0;exitX=0.5;exitY=0;exitDx=0;exitDy=0;fontSize=15;" parent="1" source="0TojDE-Gm-KJ80sG_e-O-4" target="0TojDE-Gm-KJ80sG_e-O-42" edge="1">
          <mxGeometry x="0.9118" y="10" relative="1" as="geometry">
            <mxPoint x="-890" y="-10" as="targetPoint" />
            <Array as="points">
              <mxPoint x="-1100" y="10" />
            </Array>
            <mxPoint as="offset" />
          </mxGeometry>
        </mxCell>
        <mxCell id="0TojDE-Gm-KJ80sG_e-O-4" value="회원" style="rounded=0;whiteSpace=wrap;html=1;fontSize=17;" parent="1" vertex="1">
          <mxGeometry x="-1140" y="280" width="80" height="30" as="geometry" />
        </mxCell>
        <mxCell id="0TojDE-Gm-KJ80sG_e-O-6" value="회원명" style="ellipse;whiteSpace=wrap;html=1;rounded=0;fontSize=17;" parent="1" vertex="1">
          <mxGeometry x="-1150" y="390" width="80" height="30" as="geometry" />
        </mxCell>
        <mxCell id="0TojDE-Gm-KJ80sG_e-O-7" value="비밀번호" style="ellipse;whiteSpace=wrap;html=1;rounded=0;fontSize=17;" parent="1" vertex="1">
          <mxGeometry x="-1230" y="370" width="80" height="30" as="geometry" />
        </mxCell>
        <mxCell id="0TojDE-Gm-KJ80sG_e-O-8" value="&lt;font color=&quot;#ff0000&quot; style=&quot;font-size: 17px;&quot;&gt;&lt;u style=&quot;font-size: 17px;&quot;&gt;아이디&lt;/u&gt;&lt;/font&gt;" style="ellipse;whiteSpace=wrap;html=1;rounded=0;fontSize=17;" parent="1" vertex="1">
          <mxGeometry x="-1290" y="340" width="80" height="30" as="geometry" />
        </mxCell>
        <mxCell id="0TojDE-Gm-KJ80sG_e-O-9" value="전화번호" style="ellipse;whiteSpace=wrap;html=1;rounded=0;fontSize=17;" parent="1" vertex="1">
          <mxGeometry x="-1070" y="400" width="80" height="30" as="geometry" />
        </mxCell>
        <mxCell id="0TojDE-Gm-KJ80sG_e-O-10" value="주소" style="ellipse;whiteSpace=wrap;html=1;rounded=0;fontSize=17;" parent="1" vertex="1">
          <mxGeometry x="-990" y="390" width="80" height="30" as="geometry" />
        </mxCell>
        <mxCell id="0TojDE-Gm-KJ80sG_e-O-11" value="" style="rounded=0;orthogonalLoop=1;jettySize=auto;html=1;exitX=0.5;exitY=0;exitDx=0;exitDy=0;fontSize=17;" parent="1" source="0TojDE-Gm-KJ80sG_e-O-13" target="0TojDE-Gm-KJ80sG_e-O-31" edge="1">
          <mxGeometry relative="1" as="geometry" />
        </mxCell>
        <mxCell id="0TojDE-Gm-KJ80sG_e-O-111" value="1" style="edgeStyle=orthogonalEdgeStyle;rounded=0;orthogonalLoop=1;jettySize=auto;html=1;entryX=1;entryY=0.5;entryDx=0;entryDy=0;fontSize=15;" parent="1" source="0TojDE-Gm-KJ80sG_e-O-13" target="0TojDE-Gm-KJ80sG_e-O-109" edge="1">
          <mxGeometry x="0.8333" y="-10" relative="1" as="geometry">
            <mxPoint x="-760" y="220" as="targetPoint" />
            <mxPoint as="offset" />
          </mxGeometry>
        </mxCell>
        <mxCell id="0TojDE-Gm-KJ80sG_e-O-13" value="주문" style="rhombus;whiteSpace=wrap;html=1;fontSize=17;" parent="1" vertex="1">
          <mxGeometry x="-620" y="200" width="120" height="40" as="geometry" />
        </mxCell>
        <mxCell id="0TojDE-Gm-KJ80sG_e-O-15" value="" style="endArrow=classic;html=1;rounded=1;exitX=0.5;exitY=1;exitDx=0;exitDy=0;entryX=0.5;entryY=0;entryDx=0;entryDy=0;fontSize=17;" parent="1" source="0TojDE-Gm-KJ80sG_e-O-4" target="0TojDE-Gm-KJ80sG_e-O-8" edge="1">
          <mxGeometry width="50" height="50" relative="1" as="geometry">
            <mxPoint x="-452" y="360" as="sourcePoint" />
            <mxPoint x="-402" y="310" as="targetPoint" />
          </mxGeometry>
        </mxCell>
        <mxCell id="0TojDE-Gm-KJ80sG_e-O-16" value="" style="endArrow=classic;html=1;rounded=0;entryX=0.5;entryY=0;entryDx=0;entryDy=0;exitX=0.5;exitY=1;exitDx=0;exitDy=0;fontSize=17;" parent="1" source="0TojDE-Gm-KJ80sG_e-O-4" target="0TojDE-Gm-KJ80sG_e-O-7" edge="1">
          <mxGeometry width="50" height="50" relative="1" as="geometry">
            <mxPoint x="-822" y="350" as="sourcePoint" />
            <mxPoint x="-772" y="300" as="targetPoint" />
          </mxGeometry>
        </mxCell>
        <mxCell id="0TojDE-Gm-KJ80sG_e-O-17" value="" style="endArrow=classic;html=1;rounded=0;entryX=0.5;entryY=0;entryDx=0;entryDy=0;exitX=0.5;exitY=1;exitDx=0;exitDy=0;fontSize=17;" parent="1" source="0TojDE-Gm-KJ80sG_e-O-4" target="0TojDE-Gm-KJ80sG_e-O-9" edge="1">
          <mxGeometry width="50" height="50" relative="1" as="geometry">
            <mxPoint x="-672" y="560" as="sourcePoint" />
            <mxPoint x="-622" y="510" as="targetPoint" />
          </mxGeometry>
        </mxCell>
        <mxCell id="0TojDE-Gm-KJ80sG_e-O-18" value="" style="endArrow=classic;html=1;rounded=0;entryX=0.5;entryY=0;entryDx=0;entryDy=0;exitX=0.5;exitY=1;exitDx=0;exitDy=0;fontSize=17;" parent="1" source="0TojDE-Gm-KJ80sG_e-O-4" target="0TojDE-Gm-KJ80sG_e-O-10" edge="1">
          <mxGeometry width="50" height="50" relative="1" as="geometry">
            <mxPoint x="-922" y="310" as="sourcePoint" />
            <mxPoint x="-402" y="310" as="targetPoint" />
          </mxGeometry>
        </mxCell>
        <mxCell id="0TojDE-Gm-KJ80sG_e-O-19" value="" style="rounded=0;orthogonalLoop=1;jettySize=auto;html=1;exitX=0.5;exitY=1;exitDx=0;exitDy=0;fontSize=17;" parent="1" source="0TojDE-Gm-KJ80sG_e-O-20" target="0TojDE-Gm-KJ80sG_e-O-21" edge="1">
          <mxGeometry relative="1" as="geometry">
            <mxPoint x="-111.25" y="290" as="sourcePoint" />
          </mxGeometry>
        </mxCell>
        <mxCell id="0TojDE-Gm-KJ80sG_e-O-98" value="N" style="edgeStyle=orthogonalEdgeStyle;rounded=0;orthogonalLoop=1;jettySize=auto;html=1;entryX=1;entryY=0.5;entryDx=0;entryDy=0;fontSize=15;" parent="1" source="0TojDE-Gm-KJ80sG_e-O-20" target="0TojDE-Gm-KJ80sG_e-O-13" edge="1">
          <mxGeometry x="0.8585" y="-10" relative="1" as="geometry">
            <mxPoint x="-196" y="215.00000000000023" as="targetPoint" />
            <Array as="points">
              <mxPoint x="-240" y="220" />
              <mxPoint x="-240" y="220" />
            </Array>
            <mxPoint as="offset" />
          </mxGeometry>
        </mxCell>
        <mxCell id="0TojDE-Gm-KJ80sG_e-O-20" value="상품" style="rounded=0;whiteSpace=wrap;html=1;fontSize=17;" parent="1" vertex="1">
          <mxGeometry x="-244.25" y="205" width="80" height="30" as="geometry" />
        </mxCell>
        <mxCell id="0TojDE-Gm-KJ80sG_e-O-21" value="수량" style="ellipse;whiteSpace=wrap;html=1;rounded=0;fontSize=17;" parent="1" vertex="1">
          <mxGeometry x="-244.25" y="360" width="80" height="30" as="geometry" />
        </mxCell>
        <mxCell id="0TojDE-Gm-KJ80sG_e-O-22" value="상품명" style="ellipse;whiteSpace=wrap;html=1;rounded=0;fontSize=17;" parent="1" vertex="1">
          <mxGeometry x="-470.75" y="300" width="80" height="30" as="geometry" />
        </mxCell>
        <mxCell id="0TojDE-Gm-KJ80sG_e-O-23" value="&lt;font color=&quot;#ff0000&quot; style=&quot;font-size: 17px;&quot;&gt;&lt;u style=&quot;font-size: 17px;&quot;&gt;상품코드&lt;/u&gt;&lt;/font&gt;" style="ellipse;whiteSpace=wrap;html=1;rounded=0;fontSize=17;" parent="1" vertex="1">
          <mxGeometry x="-520" y="270" width="80" height="30" as="geometry" />
        </mxCell>
        <mxCell id="0TojDE-Gm-KJ80sG_e-O-24" value="설명" style="ellipse;whiteSpace=wrap;html=1;rounded=0;fontSize=17;" parent="1" vertex="1">
          <mxGeometry x="-330" y="350" width="80" height="30" as="geometry" />
        </mxCell>
        <mxCell id="0TojDE-Gm-KJ80sG_e-O-26" value="" style="endArrow=classic;html=1;rounded=1;exitX=0.5;exitY=1;exitDx=0;exitDy=0;entryX=0.5;entryY=0;entryDx=0;entryDy=0;fontSize=17;" parent="1" source="0TojDE-Gm-KJ80sG_e-O-20" target="0TojDE-Gm-KJ80sG_e-O-23" edge="1">
          <mxGeometry width="50" height="50" relative="1" as="geometry">
            <mxPoint x="-111.25" y="290" as="sourcePoint" />
            <mxPoint x="338.75" y="285" as="targetPoint" />
          </mxGeometry>
        </mxCell>
        <mxCell id="0TojDE-Gm-KJ80sG_e-O-27" value="" style="endArrow=classic;html=1;rounded=0;entryX=0.5;entryY=0;entryDx=0;entryDy=0;exitX=0.5;exitY=1;exitDx=0;exitDy=0;fontSize=17;" parent="1" source="0TojDE-Gm-KJ80sG_e-O-20" target="0TojDE-Gm-KJ80sG_e-O-22" edge="1">
          <mxGeometry width="50" height="50" relative="1" as="geometry">
            <mxPoint x="-111.25" y="290" as="sourcePoint" />
            <mxPoint x="-31.25" y="275" as="targetPoint" />
          </mxGeometry>
        </mxCell>
        <mxCell id="0TojDE-Gm-KJ80sG_e-O-28" value="" style="endArrow=classic;html=1;rounded=0;entryX=0.5;entryY=0;entryDx=0;entryDy=0;exitX=0.5;exitY=1;exitDx=0;exitDy=0;fontSize=17;" parent="1" source="0TojDE-Gm-KJ80sG_e-O-20" target="0TojDE-Gm-KJ80sG_e-O-24" edge="1">
          <mxGeometry width="50" height="50" relative="1" as="geometry">
            <mxPoint x="-111.25" y="290" as="sourcePoint" />
            <mxPoint x="118.75" y="485" as="targetPoint" />
          </mxGeometry>
        </mxCell>
        <mxCell id="0TojDE-Gm-KJ80sG_e-O-29" value="" style="endArrow=classic;html=1;rounded=0;entryX=0.5;entryY=0;entryDx=0;entryDy=0;exitX=0.5;exitY=1;exitDx=0;exitDy=0;fontSize=17;" parent="1" source="0TojDE-Gm-KJ80sG_e-O-20" target="0TojDE-Gm-KJ80sG_e-O-101" edge="1">
          <mxGeometry width="50" height="50" relative="1" as="geometry">
            <mxPoint x="-111.25" y="290" as="sourcePoint" />
            <mxPoint x="-116.75" y="335" as="targetPoint" />
          </mxGeometry>
        </mxCell>
        <mxCell id="0TojDE-Gm-KJ80sG_e-O-31" value="상품코드" style="ellipse;whiteSpace=wrap;html=1;rounded=0;fontColor=#1100FF;fontSize=17;" parent="1" vertex="1">
          <mxGeometry x="-800" y="80" width="80" height="30" as="geometry" />
        </mxCell>
        <mxCell id="0TojDE-Gm-KJ80sG_e-O-32" value="아이디" style="ellipse;whiteSpace=wrap;html=1;rounded=0;fontColor=#1100FF;fontSize=17;" parent="1" vertex="1">
          <mxGeometry x="-870" y="100" width="80" height="30" as="geometry" />
        </mxCell>
        <mxCell id="0TojDE-Gm-KJ80sG_e-O-33" value="&lt;font color=&quot;#ff0000&quot; style=&quot;font-size: 17px;&quot;&gt;&lt;u style=&quot;font-size: 17px;&quot;&gt;주문번호&lt;/u&gt;&lt;/font&gt;" style="ellipse;whiteSpace=wrap;html=1;rounded=0;fontSize=17;" parent="1" vertex="1">
          <mxGeometry x="-950" y="120" width="80" height="30" as="geometry" />
        </mxCell>
        <mxCell id="0TojDE-Gm-KJ80sG_e-O-34" value="전화번호" style="ellipse;whiteSpace=wrap;html=1;rounded=0;fontSize=17;" parent="1" vertex="1">
          <mxGeometry x="-729.75" y="60" width="80" height="30" as="geometry" />
        </mxCell>
        <mxCell id="0TojDE-Gm-KJ80sG_e-O-35" value="주소" style="ellipse;whiteSpace=wrap;html=1;rounded=0;fontSize=17;" parent="1" vertex="1">
          <mxGeometry x="-649.75" y="50" width="80" height="30" as="geometry" />
        </mxCell>
        <mxCell id="0TojDE-Gm-KJ80sG_e-O-36" value="" style="endArrow=classic;html=1;rounded=0;entryX=0.5;entryY=1;entryDx=0;entryDy=0;exitX=0.5;exitY=0;exitDx=0;exitDy=0;fontSize=17;" parent="1" source="0TojDE-Gm-KJ80sG_e-O-13" target="0TojDE-Gm-KJ80sG_e-O-32" edge="1">
          <mxGeometry width="50" height="50" relative="1" as="geometry">
            <mxPoint x="-620" y="60" as="sourcePoint" />
            <mxPoint x="-570" y="10" as="targetPoint" />
          </mxGeometry>
        </mxCell>
        <mxCell id="0TojDE-Gm-KJ80sG_e-O-37" value="" style="endArrow=classic;html=1;rounded=0;entryX=0.5;entryY=1;entryDx=0;entryDy=0;exitX=0.5;exitY=0;exitDx=0;exitDy=0;fontSize=17;" parent="1" source="0TojDE-Gm-KJ80sG_e-O-13" target="0TojDE-Gm-KJ80sG_e-O-33" edge="1">
          <mxGeometry width="50" height="50" relative="1" as="geometry">
            <mxPoint x="-620" y="60" as="sourcePoint" />
            <mxPoint x="-570" y="10" as="targetPoint" />
          </mxGeometry>
        </mxCell>
        <mxCell id="0TojDE-Gm-KJ80sG_e-O-38" value="" style="endArrow=classic;html=1;rounded=0;entryX=0.5;entryY=1;entryDx=0;entryDy=0;exitX=0.5;exitY=0;exitDx=0;exitDy=0;fontSize=17;" parent="1" source="0TojDE-Gm-KJ80sG_e-O-13" target="0TojDE-Gm-KJ80sG_e-O-34" edge="1">
          <mxGeometry width="50" height="50" relative="1" as="geometry">
            <mxPoint x="-620" y="60" as="sourcePoint" />
            <mxPoint x="-570" y="10" as="targetPoint" />
          </mxGeometry>
        </mxCell>
        <mxCell id="0TojDE-Gm-KJ80sG_e-O-39" value="" style="endArrow=classic;html=1;rounded=0;entryX=0.5;entryY=1;entryDx=0;entryDy=0;fontSize=17;" parent="1" target="0TojDE-Gm-KJ80sG_e-O-35" edge="1">
          <mxGeometry width="50" height="50" relative="1" as="geometry">
            <mxPoint x="-560" y="200" as="sourcePoint" />
            <mxPoint x="-570" y="10" as="targetPoint" />
          </mxGeometry>
        </mxCell>
        <mxCell id="0TojDE-Gm-KJ80sG_e-O-40" value="" style="edgeStyle=orthogonalEdgeStyle;rounded=0;orthogonalLoop=1;jettySize=auto;html=1;entryX=0.5;entryY=0;entryDx=0;entryDy=0;dashed=1;fontSize=17;" parent="1" source="0TojDE-Gm-KJ80sG_e-O-42" target="0TojDE-Gm-KJ80sG_e-O-13" edge="1">
          <mxGeometry relative="1" as="geometry" />
        </mxCell>
        <mxCell id="0TojDE-Gm-KJ80sG_e-O-41" value="N" style="edgeStyle=orthogonalEdgeStyle;rounded=0;orthogonalLoop=1;jettySize=auto;html=1;startArrow=classic;startFill=1;endArrow=none;endFill=0;entryX=0.5;entryY=0;entryDx=0;entryDy=0;fontSize=15;" parent="1" source="0TojDE-Gm-KJ80sG_e-O-42" target="0TojDE-Gm-KJ80sG_e-O-20" edge="1">
          <mxGeometry x="-0.8497" y="10" relative="1" as="geometry">
            <mxPoint x="-240" y="10" as="targetPoint" />
            <mxPoint as="offset" />
          </mxGeometry>
        </mxCell>
        <mxCell id="0TojDE-Gm-KJ80sG_e-O-42" value="장바구니" style="rhombus;whiteSpace=wrap;html=1;fontSize=17;" parent="1" vertex="1">
          <mxGeometry x="-620" y="-10" width="120" height="40" as="geometry" />
        </mxCell>
        <mxCell id="0TojDE-Gm-KJ80sG_e-O-44" value="ID" style="ellipse;whiteSpace=wrap;html=1;rounded=0;fontColor=#1100FF;fontSize=17;" parent="1" vertex="1">
          <mxGeometry x="-760" y="-70" width="130" height="30" as="geometry" />
        </mxCell>
        <mxCell id="0TojDE-Gm-KJ80sG_e-O-45" value="상품코드" style="ellipse;whiteSpace=wrap;html=1;rounded=0;fontColor=#1100FF;fontSize=17;" parent="1" vertex="1">
          <mxGeometry x="-625" y="-70" width="130" height="30" as="geometry" />
        </mxCell>
        <mxCell id="0TojDE-Gm-KJ80sG_e-O-46" value="수량" style="ellipse;whiteSpace=wrap;html=1;rounded=0;fontSize=17;" parent="1" vertex="1">
          <mxGeometry x="-491" y="-70" width="130" height="30" as="geometry" />
        </mxCell>
        <mxCell id="0TojDE-Gm-KJ80sG_e-O-47" value="장바구니번호" style="ellipse;whiteSpace=wrap;html=1;rounded=0;fontColor=#ff0000;fontStyle=4;fontSize=17;" parent="1" vertex="1">
          <mxGeometry x="-895" y="-70" width="130" height="30" as="geometry" />
        </mxCell>
        <mxCell id="0TojDE-Gm-KJ80sG_e-O-48" value="" style="endArrow=classic;html=1;rounded=0;exitX=0.5;exitY=0;exitDx=0;exitDy=0;entryX=0.5;entryY=1;entryDx=0;entryDy=0;fontSize=17;" parent="1" source="0TojDE-Gm-KJ80sG_e-O-42" target="0TojDE-Gm-KJ80sG_e-O-45" edge="1">
          <mxGeometry width="50" height="50" relative="1" as="geometry">
            <mxPoint x="-560" y="160" as="sourcePoint" />
            <mxPoint x="-510" y="110" as="targetPoint" />
          </mxGeometry>
        </mxCell>
        <mxCell id="0TojDE-Gm-KJ80sG_e-O-49" value="" style="endArrow=classic;html=1;rounded=0;entryX=0.5;entryY=1;entryDx=0;entryDy=0;exitX=0.5;exitY=0;exitDx=0;exitDy=0;fontSize=17;" parent="1" source="0TojDE-Gm-KJ80sG_e-O-42" target="0TojDE-Gm-KJ80sG_e-O-46" edge="1">
          <mxGeometry width="50" height="50" relative="1" as="geometry">
            <mxPoint x="-560" y="160" as="sourcePoint" />
            <mxPoint x="-510" y="110" as="targetPoint" />
          </mxGeometry>
        </mxCell>
        <mxCell id="0TojDE-Gm-KJ80sG_e-O-50" value="" style="endArrow=classic;html=1;rounded=0;entryX=0.5;entryY=1;entryDx=0;entryDy=0;exitX=0.5;exitY=0;exitDx=0;exitDy=0;fontSize=17;" parent="1" source="0TojDE-Gm-KJ80sG_e-O-42" target="0TojDE-Gm-KJ80sG_e-O-44" edge="1">
          <mxGeometry width="50" height="50" relative="1" as="geometry">
            <mxPoint x="-746" y="80" as="sourcePoint" />
            <mxPoint x="-696" y="30" as="targetPoint" />
          </mxGeometry>
        </mxCell>
        <mxCell id="0TojDE-Gm-KJ80sG_e-O-51" value="" style="endArrow=classic;html=1;rounded=0;entryX=0.5;entryY=1;entryDx=0;entryDy=0;fontSize=17;" parent="1" target="0TojDE-Gm-KJ80sG_e-O-47" edge="1">
          <mxGeometry width="50" height="50" relative="1" as="geometry">
            <mxPoint x="-560" y="-10" as="sourcePoint" />
            <mxPoint x="-860" y="-30" as="targetPoint" />
          </mxGeometry>
        </mxCell>
        <mxCell id="0TojDE-Gm-KJ80sG_e-O-52" value="" style="rounded=0;orthogonalLoop=1;jettySize=auto;html=1;exitX=0.5;exitY=1;exitDx=0;exitDy=0;fontSize=17;" parent="1" source="0TojDE-Gm-KJ80sG_e-O-63" target="0TojDE-Gm-KJ80sG_e-O-53" edge="1">
          <mxGeometry relative="1" as="geometry" />
        </mxCell>
        <mxCell id="0TojDE-Gm-KJ80sG_e-O-53" value="주문번호" style="ellipse;whiteSpace=wrap;html=1;rounded=0;fontColor=#0514e6;fontSize=17;" parent="1" vertex="1">
          <mxGeometry x="-600" y="510" width="80" height="30" as="geometry" />
        </mxCell>
        <mxCell id="0TojDE-Gm-KJ80sG_e-O-54" value="ID" style="ellipse;whiteSpace=wrap;html=1;rounded=0;fontColor=#0514e6;fontSize=17;" parent="1" vertex="1">
          <mxGeometry x="-702" y="510" width="80" height="30" as="geometry" />
        </mxCell>
        <mxCell id="0TojDE-Gm-KJ80sG_e-O-55" value="&lt;font color=&quot;#ff0000&quot; style=&quot;font-size: 17px;&quot;&gt;&lt;u style=&quot;font-size: 17px;&quot;&gt;결제번호&lt;/u&gt;&lt;/font&gt;" style="ellipse;whiteSpace=wrap;html=1;rounded=0;fontSize=17;" parent="1" vertex="1">
          <mxGeometry x="-805" y="510" width="80" height="30" as="geometry" />
        </mxCell>
        <mxCell id="0TojDE-Gm-KJ80sG_e-O-56" value="결제수단" style="ellipse;whiteSpace=wrap;html=1;rounded=0;fontSize=17;" parent="1" vertex="1">
          <mxGeometry x="-497" y="510" width="80" height="30" as="geometry" />
        </mxCell>
        <mxCell id="0TojDE-Gm-KJ80sG_e-O-57" value="구입가" style="ellipse;whiteSpace=wrap;html=1;rounded=0;fontSize=17;" parent="1" vertex="1">
          <mxGeometry x="-395" y="510" width="80" height="30" as="geometry" />
        </mxCell>
        <mxCell id="0TojDE-Gm-KJ80sG_e-O-58" value="" style="endArrow=classic;html=1;rounded=0;entryX=0.5;entryY=0;entryDx=0;entryDy=0;exitX=0.5;exitY=1;exitDx=0;exitDy=0;fontSize=17;" parent="1" source="0TojDE-Gm-KJ80sG_e-O-63" target="0TojDE-Gm-KJ80sG_e-O-54" edge="1">
          <mxGeometry width="50" height="50" relative="1" as="geometry">
            <mxPoint x="-617" y="390" as="sourcePoint" />
            <mxPoint x="-567" y="340" as="targetPoint" />
          </mxGeometry>
        </mxCell>
        <mxCell id="0TojDE-Gm-KJ80sG_e-O-59" value="" style="endArrow=classic;html=1;rounded=0;entryX=0.5;entryY=0;entryDx=0;entryDy=0;exitX=0.5;exitY=1;exitDx=0;exitDy=0;fontSize=17;" parent="1" source="0TojDE-Gm-KJ80sG_e-O-63" target="0TojDE-Gm-KJ80sG_e-O-55" edge="1">
          <mxGeometry width="50" height="50" relative="1" as="geometry">
            <mxPoint x="-617" y="390" as="sourcePoint" />
            <mxPoint x="-567" y="340" as="targetPoint" />
          </mxGeometry>
        </mxCell>
        <mxCell id="0TojDE-Gm-KJ80sG_e-O-60" value="" style="endArrow=classic;html=1;rounded=0;entryX=0.5;entryY=0;entryDx=0;entryDy=0;exitX=0.5;exitY=1;exitDx=0;exitDy=0;fontSize=17;" parent="1" source="0TojDE-Gm-KJ80sG_e-O-63" target="0TojDE-Gm-KJ80sG_e-O-56" edge="1">
          <mxGeometry width="50" height="50" relative="1" as="geometry">
            <mxPoint x="-617" y="390" as="sourcePoint" />
            <mxPoint x="-567" y="340" as="targetPoint" />
          </mxGeometry>
        </mxCell>
        <mxCell id="0TojDE-Gm-KJ80sG_e-O-61" value="" style="endArrow=classic;html=1;rounded=0;entryX=0.5;entryY=0;entryDx=0;entryDy=0;exitX=0.5;exitY=1;exitDx=0;exitDy=0;fontSize=17;" parent="1" source="0TojDE-Gm-KJ80sG_e-O-63" target="0TojDE-Gm-KJ80sG_e-O-57" edge="1">
          <mxGeometry width="50" height="50" relative="1" as="geometry">
            <mxPoint x="-557" y="530" as="sourcePoint" />
            <mxPoint x="-567" y="340" as="targetPoint" />
          </mxGeometry>
        </mxCell>
        <mxCell id="0TojDE-Gm-KJ80sG_e-O-100" value="1" style="edgeStyle=orthogonalEdgeStyle;rounded=0;orthogonalLoop=1;jettySize=auto;html=1;entryX=0.5;entryY=1;entryDx=0;entryDy=0;fontSize=15;" parent="1" source="0TojDE-Gm-KJ80sG_e-O-63" target="0TojDE-Gm-KJ80sG_e-O-13" edge="1">
          <mxGeometry x="0.6842" y="10" relative="1" as="geometry">
            <mxPoint x="-560" y="330" as="targetPoint" />
            <mxPoint as="offset" />
          </mxGeometry>
        </mxCell>
        <mxCell id="0TojDE-Gm-KJ80sG_e-O-63" value="결제" style="rhombus;whiteSpace=wrap;html=1;fontSize=17;" parent="1" vertex="1">
          <mxGeometry x="-620" y="430" width="120" height="40" as="geometry" />
        </mxCell>
        <mxCell id="0TojDE-Gm-KJ80sG_e-O-80" value="가격" style="ellipse;whiteSpace=wrap;html=1;rounded=0;fontSize=17;" parent="1" vertex="1">
          <mxGeometry x="-356" y="-70" width="130" height="30" as="geometry" />
        </mxCell>
        <mxCell id="0TojDE-Gm-KJ80sG_e-O-81" value="" style="endArrow=classic;html=1;rounded=0;entryX=0.5;entryY=1;entryDx=0;entryDy=0;fontSize=17;" parent="1" target="0TojDE-Gm-KJ80sG_e-O-80" edge="1">
          <mxGeometry width="50" height="50" relative="1" as="geometry">
            <mxPoint x="-560" y="-10" as="sourcePoint" />
            <mxPoint x="-430" y="140" as="targetPoint" />
          </mxGeometry>
        </mxCell>
        <mxCell id="0TojDE-Gm-KJ80sG_e-O-82" value="이메일" style="ellipse;whiteSpace=wrap;html=1;rounded=0;fontSize=17;" parent="1" vertex="1">
          <mxGeometry x="-918.5" y="370" width="80" height="30" as="geometry" />
        </mxCell>
        <mxCell id="0TojDE-Gm-KJ80sG_e-O-83" value="가입일" style="ellipse;whiteSpace=wrap;html=1;rounded=0;fontSize=17;" parent="1" vertex="1">
          <mxGeometry x="-850" y="350" width="80" height="30" as="geometry" />
        </mxCell>
        <mxCell id="0TojDE-Gm-KJ80sG_e-O-84" value="점수" style="ellipse;whiteSpace=wrap;html=1;rounded=0;fontSize=17;" parent="1" vertex="1">
          <mxGeometry x="-790" y="320" width="80" height="30" as="geometry" />
        </mxCell>
        <mxCell id="0TojDE-Gm-KJ80sG_e-O-89" value="" style="endArrow=classic;html=1;rounded=0;entryX=0.5;entryY=0;entryDx=0;entryDy=0;exitX=0.5;exitY=1;exitDx=0;exitDy=0;fontSize=17;" parent="1" source="0TojDE-Gm-KJ80sG_e-O-4" target="0TojDE-Gm-KJ80sG_e-O-82" edge="1">
          <mxGeometry width="50" height="50" relative="1" as="geometry">
            <mxPoint x="-912" y="320" as="sourcePoint" />
            <mxPoint x="-862" y="270" as="targetPoint" />
          </mxGeometry>
        </mxCell>
        <mxCell id="0TojDE-Gm-KJ80sG_e-O-90" value="" style="endArrow=classic;html=1;rounded=0;exitX=0.5;exitY=1;exitDx=0;exitDy=0;entryX=0.5;entryY=0;entryDx=0;entryDy=0;fontSize=17;" parent="1" source="0TojDE-Gm-KJ80sG_e-O-4" target="0TojDE-Gm-KJ80sG_e-O-83" edge="1">
          <mxGeometry width="50" height="50" relative="1" as="geometry">
            <mxPoint x="-912" y="320" as="sourcePoint" />
            <mxPoint x="-862" y="270" as="targetPoint" />
          </mxGeometry>
        </mxCell>
        <mxCell id="0TojDE-Gm-KJ80sG_e-O-91" value="" style="endArrow=classic;html=1;rounded=0;exitX=0.5;exitY=1;exitDx=0;exitDy=0;entryX=0.5;entryY=0;entryDx=0;entryDy=0;fontSize=17;" parent="1" source="0TojDE-Gm-KJ80sG_e-O-4" target="0TojDE-Gm-KJ80sG_e-O-84" edge="1">
          <mxGeometry width="50" height="50" relative="1" as="geometry">
            <mxPoint x="-912" y="320" as="sourcePoint" />
            <mxPoint x="-862" y="270" as="targetPoint" />
          </mxGeometry>
        </mxCell>
        <mxCell id="0TojDE-Gm-KJ80sG_e-O-92" value="수량" style="ellipse;whiteSpace=wrap;html=1;rounded=0;fontSize=17;" parent="1" vertex="1">
          <mxGeometry x="-550.75" y="50" width="80" height="30" as="geometry" />
        </mxCell>
        <mxCell id="0TojDE-Gm-KJ80sG_e-O-93" value="가격" style="ellipse;whiteSpace=wrap;html=1;rounded=0;fontSize=17;" parent="1" vertex="1">
          <mxGeometry x="-470.75" y="60" width="80" height="30" as="geometry" />
        </mxCell>
        <mxCell id="0TojDE-Gm-KJ80sG_e-O-94" value="택배사" style="ellipse;whiteSpace=wrap;html=1;rounded=0;fontSize=17;" parent="1" vertex="1">
          <mxGeometry x="-420" y="90" width="80" height="30" as="geometry" />
        </mxCell>
        <mxCell id="0TojDE-Gm-KJ80sG_e-O-95" value="화물코드" style="ellipse;whiteSpace=wrap;html=1;rounded=0;fontSize=17;" parent="1" vertex="1">
          <mxGeometry x="-371.25" y="120" width="80" height="30" as="geometry" />
        </mxCell>
        <mxCell id="0TojDE-Gm-KJ80sG_e-O-96" value="배송상태" style="ellipse;whiteSpace=wrap;html=1;rounded=0;fontSize=17;" parent="1" vertex="1">
          <mxGeometry x="-330" y="150" width="80" height="30" as="geometry" />
        </mxCell>
        <mxCell id="0TojDE-Gm-KJ80sG_e-O-101" value="가격" style="ellipse;whiteSpace=wrap;html=1;rounded=0;fontSize=17;" parent="1" vertex="1">
          <mxGeometry x="-410" y="330" width="80" height="30" as="geometry" />
        </mxCell>
        <mxCell id="0TojDE-Gm-KJ80sG_e-O-103" value="" style="endArrow=classic;html=1;rounded=0;entryX=0.5;entryY=1;entryDx=0;entryDy=0;fontSize=17;" parent="1" target="0TojDE-Gm-KJ80sG_e-O-92" edge="1">
          <mxGeometry width="50" height="50" relative="1" as="geometry">
            <mxPoint x="-560" y="200" as="sourcePoint" />
            <mxPoint x="-570" y="300" as="targetPoint" />
          </mxGeometry>
        </mxCell>
        <mxCell id="0TojDE-Gm-KJ80sG_e-O-104" value="" style="endArrow=classic;html=1;rounded=0;entryX=0.5;entryY=1;entryDx=0;entryDy=0;exitX=0.5;exitY=0;exitDx=0;exitDy=0;fontSize=17;" parent="1" source="0TojDE-Gm-KJ80sG_e-O-13" target="0TojDE-Gm-KJ80sG_e-O-93" edge="1">
          <mxGeometry width="50" height="50" relative="1" as="geometry">
            <mxPoint x="-463" y="200" as="sourcePoint" />
            <mxPoint x="-413" y="150" as="targetPoint" />
          </mxGeometry>
        </mxCell>
        <mxCell id="0TojDE-Gm-KJ80sG_e-O-105" value="" style="endArrow=classic;html=1;rounded=0;entryX=0.5;entryY=1;entryDx=0;entryDy=0;exitX=0.5;exitY=0;exitDx=0;exitDy=0;fontSize=17;" parent="1" source="0TojDE-Gm-KJ80sG_e-O-13" target="0TojDE-Gm-KJ80sG_e-O-94" edge="1">
          <mxGeometry width="50" height="50" relative="1" as="geometry">
            <mxPoint x="-620" y="350" as="sourcePoint" />
            <mxPoint x="-570" y="300" as="targetPoint" />
          </mxGeometry>
        </mxCell>
        <mxCell id="0TojDE-Gm-KJ80sG_e-O-106" value="" style="endArrow=classic;html=1;rounded=0;entryX=0.5;entryY=1;entryDx=0;entryDy=0;exitX=0.5;exitY=0;exitDx=0;exitDy=0;fontSize=17;" parent="1" source="0TojDE-Gm-KJ80sG_e-O-13" target="0TojDE-Gm-KJ80sG_e-O-95" edge="1">
          <mxGeometry width="50" height="50" relative="1" as="geometry">
            <mxPoint x="-620" y="350" as="sourcePoint" />
            <mxPoint x="-570" y="300" as="targetPoint" />
          </mxGeometry>
        </mxCell>
        <mxCell id="0TojDE-Gm-KJ80sG_e-O-107" value="" style="endArrow=classic;html=1;rounded=0;entryX=0.5;entryY=1;entryDx=0;entryDy=0;fontSize=17;" parent="1" target="0TojDE-Gm-KJ80sG_e-O-96" edge="1">
          <mxGeometry width="50" height="50" relative="1" as="geometry">
            <mxPoint x="-560" y="200" as="sourcePoint" />
            <mxPoint x="-570" y="300" as="targetPoint" />
          </mxGeometry>
        </mxCell>
        <mxCell id="0TojDE-Gm-KJ80sG_e-O-109" value="이용후기" style="rounded=0;whiteSpace=wrap;html=1;fontSize=17;" parent="1" vertex="1">
          <mxGeometry x="-940" y="205" width="80" height="30" as="geometry" />
        </mxCell>
        <mxCell id="0TojDE-Gm-KJ80sG_e-O-114" value="주문번호" style="ellipse;whiteSpace=wrap;html=1;rounded=0;fontColor=#0514e6;fontSize=17;" parent="1" vertex="1">
          <mxGeometry x="-940" y="280" width="80" height="30" as="geometry" />
        </mxCell>
        <mxCell id="0TojDE-Gm-KJ80sG_e-O-115" value="ID" style="ellipse;whiteSpace=wrap;html=1;rounded=0;fontColor=#0514e6;fontSize=17;" parent="1" vertex="1">
          <mxGeometry x="-1020" y="265" width="80" height="30" as="geometry" />
        </mxCell>
        <mxCell id="0TojDE-Gm-KJ80sG_e-O-116" value="&lt;font color=&quot;#ff0000&quot; style=&quot;font-size: 17px;&quot;&gt;&lt;u style=&quot;font-size: 17px;&quot;&gt;결제번호&lt;/u&gt;&lt;/font&gt;" style="ellipse;whiteSpace=wrap;html=1;rounded=0;fontSize=17;" parent="1" vertex="1">
          <mxGeometry x="-1080" y="235" width="80" height="30" as="geometry" />
        </mxCell>
        <mxCell id="0TojDE-Gm-KJ80sG_e-O-119" value="작성일" style="ellipse;whiteSpace=wrap;html=1;rounded=0;fontSize=17;" parent="1" vertex="1">
          <mxGeometry x="-860" y="270" width="80" height="30" as="geometry" />
        </mxCell>
        <mxCell id="0TojDE-Gm-KJ80sG_e-O-120" value="이용후기" style="ellipse;whiteSpace=wrap;html=1;rounded=0;fontSize=17;" parent="1" vertex="1">
          <mxGeometry x="-790" y="250" width="80" height="30" as="geometry" />
        </mxCell>
        <mxCell id="0TojDE-Gm-KJ80sG_e-O-121" value="별점" style="ellipse;whiteSpace=wrap;html=1;rounded=0;fontSize=17;" parent="1" vertex="1">
          <mxGeometry x="-710" y="240" width="80" height="30" as="geometry" />
        </mxCell>
        <mxCell id="0TojDE-Gm-KJ80sG_e-O-122" value="" style="endArrow=classic;html=1;rounded=0;exitX=0.5;exitY=1;exitDx=0;exitDy=0;entryX=0.94;entryY=0.294;entryDx=0;entryDy=0;entryPerimeter=0;fontSize=17;" parent="1" source="0TojDE-Gm-KJ80sG_e-O-109" target="0TojDE-Gm-KJ80sG_e-O-116" edge="1">
          <mxGeometry width="50" height="50" relative="1" as="geometry">
            <mxPoint x="-1005" y="190" as="sourcePoint" />
            <mxPoint x="-955" y="140" as="targetPoint" />
          </mxGeometry>
        </mxCell>
        <mxCell id="0TojDE-Gm-KJ80sG_e-O-123" value="" style="endArrow=classic;html=1;rounded=0;entryX=0.5;entryY=0;entryDx=0;entryDy=0;exitX=0.5;exitY=1;exitDx=0;exitDy=0;fontSize=17;" parent="1" source="0TojDE-Gm-KJ80sG_e-O-109" target="0TojDE-Gm-KJ80sG_e-O-115" edge="1">
          <mxGeometry width="50" height="50" relative="1" as="geometry">
            <mxPoint x="-1040" y="190" as="sourcePoint" />
            <mxPoint x="-990" y="140" as="targetPoint" />
          </mxGeometry>
        </mxCell>
        <mxCell id="0TojDE-Gm-KJ80sG_e-O-124" value="" style="endArrow=classic;html=1;rounded=0;entryX=0.5;entryY=0;entryDx=0;entryDy=0;exitX=0.5;exitY=1;exitDx=0;exitDy=0;fontSize=17;" parent="1" source="0TojDE-Gm-KJ80sG_e-O-109" target="0TojDE-Gm-KJ80sG_e-O-114" edge="1">
          <mxGeometry width="50" height="50" relative="1" as="geometry">
            <mxPoint x="-820" y="350" as="sourcePoint" />
            <mxPoint x="-770" y="300" as="targetPoint" />
          </mxGeometry>
        </mxCell>
        <mxCell id="0TojDE-Gm-KJ80sG_e-O-125" value="" style="endArrow=classic;html=1;rounded=0;exitX=0.5;exitY=1;exitDx=0;exitDy=0;entryX=0.5;entryY=0;entryDx=0;entryDy=0;fontSize=17;" parent="1" source="0TojDE-Gm-KJ80sG_e-O-109" target="0TojDE-Gm-KJ80sG_e-O-119" edge="1">
          <mxGeometry width="50" height="50" relative="1" as="geometry">
            <mxPoint x="-820" y="350" as="sourcePoint" />
            <mxPoint x="-770" y="300" as="targetPoint" />
          </mxGeometry>
        </mxCell>
        <mxCell id="0TojDE-Gm-KJ80sG_e-O-126" value="" style="endArrow=classic;html=1;rounded=0;exitX=0.5;exitY=1;exitDx=0;exitDy=0;entryX=0.5;entryY=0;entryDx=0;entryDy=0;fontSize=17;" parent="1" source="0TojDE-Gm-KJ80sG_e-O-109" target="0TojDE-Gm-KJ80sG_e-O-120" edge="1">
          <mxGeometry width="50" height="50" relative="1" as="geometry">
            <mxPoint x="-820" y="350" as="sourcePoint" />
            <mxPoint x="-770" y="300" as="targetPoint" />
          </mxGeometry>
        </mxCell>
        <mxCell id="0TojDE-Gm-KJ80sG_e-O-127" value="" style="endArrow=classic;html=1;rounded=0;exitX=0.5;exitY=1;exitDx=0;exitDy=0;entryX=0.5;entryY=0;entryDx=0;entryDy=0;fontSize=17;" parent="1" source="0TojDE-Gm-KJ80sG_e-O-109" target="0TojDE-Gm-KJ80sG_e-O-121" edge="1">
          <mxGeometry width="50" height="50" relative="1" as="geometry">
            <mxPoint x="-820" y="350" as="sourcePoint" />
            <mxPoint x="-770" y="300" as="targetPoint" />
          </mxGeometry>
        </mxCell>
      </root>
    </mxGraphModel>
  </diagram>
</mxfile>
